<?xml version="1.0" encoding="UTF-8" standalone="no"?>
<!-- Created with Inkscape (http://www.inkscape.org/) -->

<svg
   width="45.968544mm"
   height="71.666161mm"
   viewBox="0 0 45.968544 71.666161"
   version="1.1"
   id="svg1"
   xml:space="preserve"
   xmlns="http://www.w3.org/2000/svg"
   xmlns:svg="http://www.w3.org/2000/svg"><defs
     id="defs1" /><g
     id="layer1"
     transform="translate(-92.153954,-65.571502)"><path
       style="fill:#62e074;fill-opacity:1;fill-rule:evenodd;stroke-width:32.5168;stroke-linecap:square;paint-order:markers stroke fill"
       d="m 105.14965,118.11472 h 6.9668 v 4.60026 c 0,6.79336 -2.29137,11.4266 -6.52676,13.19623 -4.30639,1.79935 -3.42892,1.8313 -7.680343,-0.29341 -6.564844,-3.28056 -7.752946,-11.19042 -2.322892,-15.46167 2.028599,-1.59569 4.119102,-2.04149 9.563195,-2.04149 z"
       id="path356" /><path
       style="fill:#42bcd7;fill-opacity:1;fill-rule:evenodd;stroke-width:32.5168;stroke-linecap:square;paint-order:markers stroke fill"
       d="m 126.83093,93.252326 c 3.9378,0 5.15713,0.483878 7.19075,2.848155 3.50256,4.071929 3.30005,9.143019 -0.51728,12.960389 -4.09402,4.09402 -9.25491,4.09402 -13.34889,0 -3.81736,-3.81737 -4.01984,-8.88846 -0.51732,-12.960389 2.03366,-2.364277 3.25494,-2.848155 7.19274,-2.848155 z"
       id="path351" /><path
       style="fill:#ad44df;fill-opacity:1;fill-rule:evenodd;stroke-width:32.5168;stroke-linecap:square;paint-order:markers stroke fill"
       d="m 106.43402,92.744898 h 5.68243 v 9.640552 9.64052 l -6.34243,-0.0633 c -3.48837,-0.0345 -7.390767,-0.48502 -8.671342,-0.99893 -3.46773,-1.39173 -5.667812,-7.37892 -4.269259,-11.616575 1.432189,-4.339563 6.092433,-6.602123 13.600601,-6.602123 z"
       id="path350" /><path
       style="fill:#f8a754;fill-opacity:1;fill-rule:evenodd;stroke-width:32.5168;stroke-linecap:square;paint-order:markers stroke fill"
       d="m 117.19042,68.389894 h 6.67342 c 6.02367,0 6.96335,0.289959 9.64056,2.967092 3.14133,3.141412 3.9009,7.600909 1.92255,11.2975 -1.65315,3.088866 -6.49961,5.016479 -12.60562,5.016479 h -5.63091 v -9.640516 z"
       id="path348" /><path
       style="fill:#fb5382;fill-opacity:1;fill-rule:evenodd;stroke-width:32.5168;stroke-linecap:square;paint-order:markers stroke fill"
       d="m 105.23886,68.389894 h 6.87759 v 9.640555 9.640516 h -6.45937 c -5.05534,0 -7.056473,-0.469649 -9.208458,-2.16238 -3.793244,-2.983775 -4.954422,-6.457144 -3.565649,-10.665228 1.65986,-5.029405 4.385741,-6.453463 12.355887,-6.453463 z"
       id="path347" /><path
       style="fill:#000000;fill-opacity:1;fill-rule:evenodd;stroke-width:32.5168;stroke-linecap:square;paint-order:markers stroke fill"
       d="m 135.8154,65.571502 1.41715,1.201105 c 0.45995,0.389373 0.57079,0.556982 0.88994,0.856222 -0.67358,-0.835127 -1.40653,-1.511544 -2.30709,-2.057327 z"
       id="path344" /></g></svg>
